<?xml version="1.0" encoding="utf-8"?>
<!-- Generator: Adobe Illustrator 15.1.0, SVG Export Plug-In . SVG Version: 6.00 Build 0)  -->
<!DOCTYPE svg PUBLIC "-//W3C//DTD SVG 1.1//EN" "http://www.w3.org/Graphics/SVG/1.1/DTD/svg11.dtd">
<svg version="1.1" id="Слой_1" xmlns="http://www.w3.org/2000/svg" xmlns:xlink="http://www.w3.org/1999/xlink" x="0px" y="0px"
	 width="595.28px" height="420.94px" viewBox="0 0 595.28 420.94" enable-background="new 0 0 595.28 420.94" xml:space="preserve">
<path fill="#6166AF" d="M377.5,263.829H231.833c-3.866,0-7-3.134-7-7s3.134-7,7-7H377.5c3.866,0,7,3.134,7,7
	S381.366,263.829,377.5,263.829z"/>
<path opacity="0.7" fill="#FFFFFF" d="M303.314,255.308c-1.104,0-1.999-0.895-2-1.999c0-1.104,0.895-2,2-2.001l57.202-0.029h0.001
	c1.104,0,1.999,0.895,2,1.999s-0.895,2-1.999,2.001l-57.202,0.029C303.315,255.308,303.315,255.308,303.314,255.308z"/>
<g opacity="0.7">
	<line fill="#FFFFFF" x1="373.551" y1="253.209" x2="371.961" y2="253.219"/>
	<path fill="#FFFFFF" d="M371.961,255.219c-1.099,0-1.993-0.888-2-1.987c-0.007-1.104,0.883-2.006,1.987-2.013l1.59-0.01
		c0.005,0,0.009,0,0.013,0c1.099,0,1.993,0.888,2,1.987c0.007,1.104-0.883,2.006-1.987,2.013l-1.59,0.01
		C371.969,255.219,371.965,255.219,371.961,255.219z"/>
</g>
<path fill="#6166AF" d="M143.666,256.662c-3.866,0-7-3.134-7-7v-85.667c0-3.866,3.134-7,7-7s7,3.134,7,7v85.667
	C150.666,253.528,147.532,256.662,143.666,256.662z"/>
<path fill="#6166AF" d="M201.166,237.495c-22.056,0-40-17.944-40-40s17.944-40,40-40s40,17.944,40,40l0.003,0.617
	c0.023,3.493,0.067,9.995-5.14,17.284c-2.247,3.146-6.619,3.875-9.765,1.628c-3.146-2.247-3.875-6.619-1.627-9.765
	c2.569-3.597,2.551-6.247,2.533-9.053l-0.003-0.712c0-14.337-11.664-26-26-26s-26,11.663-26,26s11.664,26,26,26
	c4.155,0,8.121-0.948,11.789-2.817c3.444-1.759,7.66-0.388,9.415,3.058c1.756,3.444,0.387,7.659-3.058,9.415
	C213.737,235.993,207.462,237.495,201.166,237.495z"/>
<g>
	<path fill="#6166AF" d="M430.363,229.213c-2.363,0-4.67-1.197-5.987-3.363c-2.009-3.304-0.96-7.609,2.343-9.618
		c3.775-2.297,4.803-4.739,5.889-7.325l0.28-0.661c3.212-7.514,2.744-15.913-1.285-23.04c-1.902-3.365-0.717-7.636,2.648-9.539
		c3.367-1.901,7.637-0.716,9.539,2.648c6.195,10.958,6.912,23.874,1.969,35.438l-0.244,0.578c-1.353,3.218-3.87,9.209-11.521,13.861
		C432.857,228.884,431.603,229.213,430.363,229.213z"/>
	<path fill="#6166AF" d="M407.508,237.49c-4.406,0-8.822-0.729-13.007-2.162c-20.865-7.145-32.029-29.934-24.886-50.8
		c7.146-20.865,29.933-32.028,50.802-24.887c2.128,0.729,4.205,1.64,6.173,2.709c3.397,1.846,4.655,6.095,2.811,9.492
		c-1.846,3.397-6.097,4.653-9.492,2.811c-1.282-0.696-2.636-1.29-4.025-1.766c-13.568-4.647-28.379,2.613-33.022,16.176
		s2.613,28.376,16.177,33.021c3.93,1.346,7.989,1.732,12.065,1.153c3.833-0.552,7.372,2.115,7.917,5.942
		c0.546,3.828-2.115,7.372-5.942,7.917C411.234,237.359,409.371,237.49,407.508,237.49z"/>
</g>
<path fill="#6166AF" d="M124.664,245.946c-1.665,0-3.335-0.59-4.672-1.79l-29.167-26.167c-2.877-2.581-3.117-7.007-0.536-9.885
	c2.582-2.877,7.007-3.119,9.885-0.535l29.167,26.167c2.877,2.581,3.117,7.007,0.536,9.885
	C128.494,245.162,126.583,245.946,124.664,245.946z"/>
<path fill="#6166AF" d="M85.108,209.097c-1.747,0-3.496-0.649-4.854-1.957c-2.785-2.682-2.869-7.112-0.188-9.897l30.615-31.8
	c2.681-2.787,7.113-2.87,9.898-0.188s2.869,7.113,0.188,9.897l-30.615,31.8C88.778,208.379,86.944,209.097,85.108,209.097z"/>
<path fill="#6166AF" d="M516.579,202.878c-1.665,0-3.336-0.59-4.673-1.79l-29.166-26.167c-2.877-2.581-3.117-7.007-0.535-9.885
	s7.008-3.118,9.885-0.535l29.166,26.167c2.877,2.581,3.117,7.007,0.535,9.885C520.409,202.094,518.498,202.878,516.579,202.878z"/>
<path fill="#6166AF" d="M496.355,245.36c-1.747,0-3.496-0.649-4.854-1.957c-2.785-2.682-2.869-7.113-0.188-9.897l30.615-31.8
	c2.681-2.786,7.113-2.87,9.897-0.188c2.785,2.682,2.869,7.113,0.188,9.897l-30.615,31.8
	C500.025,244.643,498.191,245.36,496.355,245.36z"/>
<path opacity="0.7" fill="#FFFFFF" d="M171.248,177.834c-0.445,0-0.892-0.147-1.263-0.45c-0.856-0.698-0.984-1.958-0.286-2.813
	c21.812-26.747,47.895-12.501,48.157-12.354c0.962,0.542,1.303,1.762,0.761,2.724c-0.542,0.961-1.759,1.303-2.721,0.763
	c-0.951-0.53-23.457-12.686-43.097,11.395C172.403,177.583,171.828,177.834,171.248,177.834z"/>
<path opacity="0.7" fill="#FFFFFF" d="M200.706,229.062c-1.272,0-2.067-0.078-2.175-0.089c-1.098-0.115-1.896-1.099-1.781-2.197
	c0.115-1.098,1.098-1.911,2.194-1.781l0,0c0.083,0.008,8.133,0.767,15.241-3.295c0.959-0.547,2.181-0.215,2.729,0.744
	c0.548,0.959,0.215,2.181-0.744,2.729C210.245,228.558,203.937,229.062,200.706,229.062z"/>
<path opacity="0.7" fill="#FFFFFF" d="M82.248,202.251c-0.504,0-1.009-0.189-1.398-0.57c-0.401-0.392-0.602-0.911-0.602-1.432
	c0-0.504,0.19-1.008,0.57-1.396l33-33.75c0.773-0.789,2.039-0.804,2.829-0.031c0.401,0.392,0.602,0.911,0.602,1.432
	c0,0.504-0.19,1.008-0.57,1.396l-33,33.75C83.286,202.05,82.767,202.251,82.248,202.251z"/>
<g opacity="0.7">
	<line fill="#FFFFFF" x1="93.512" y1="212.095" x2="94.666" y2="211.001"/>
	<path fill="#FFFFFF" d="M93.512,214.095c-0.53,0-1.059-0.209-1.452-0.624c-0.76-0.802-0.726-2.068,0.076-2.828l1.154-1.094
		c0.802-0.761,2.068-0.726,2.827,0.076c0.76,0.802,0.726,2.068-0.076,2.828l-1.154,1.094
		C94.5,213.913,94.006,214.095,93.512,214.095z"/>
</g>
<path opacity="0.7" fill="#FFFFFF" d="M140.083,214.084c-1.104,0-2-0.896-2-2v-45.451c-0.031-0.695-0.083-4.596,2.459-6.799
	c1.008-0.875,2.813-1.795,5.688-1.211c1.083,0.221,1.782,1.275,1.563,2.357c-0.219,1.082-1.27,1.785-2.357,1.563
	c-1.547-0.313-2.09,0.154-2.268,0.309c-0.99,0.85-1.12,2.955-1.087,3.625l0.003,0.107v45.5
	C142.083,213.188,141.187,214.084,140.083,214.084z"/>
<path fill="#6166AF" d="M465.666,256.662c-3.866,0-7-3.134-7-7v-85.667c0-3.866,3.134-7,7-7s7,3.134,7,7v85.667
	C472.666,253.528,469.532,256.662,465.666,256.662z"/>
<path opacity="0.7" fill="#FFFFFF" d="M462.082,214.084c-1.104,0-2-0.896-2-2v-45.451c-0.03-0.695-0.082-4.596,2.459-6.799
	c1.008-0.875,2.813-1.795,5.689-1.211c1.082,0.221,1.781,1.275,1.563,2.357s-1.27,1.785-2.357,1.563
	c-1.548-0.313-2.09,0.154-2.269,0.309c-0.99,0.85-1.12,2.955-1.087,3.625l0.002,0.107v45.5
	C464.082,213.188,463.188,214.084,462.082,214.084z"/>
<path opacity="0.7" fill="#FFFFFF" d="M493.25,238.334c-0.505,0-1.009-0.189-1.398-0.57c-0.4-0.392-0.602-0.911-0.602-1.432
	c0-0.504,0.189-1.008,0.57-1.396l33-33.75c0.772-0.789,2.038-0.804,2.828-0.031c0.4,0.392,0.602,0.911,0.602,1.432
	c0,0.504-0.189,1.008-0.57,1.396l-33,33.75C494.288,238.133,493.77,238.334,493.25,238.334z"/>
<g opacity="0.7">
	<line fill="#FFFFFF" x1="486.973" y1="167.934" x2="485.818" y2="169.027"/>
	<path fill="#FFFFFF" d="M485.818,171.027c-0.529,0-1.059-0.209-1.452-0.624c-0.76-0.802-0.726-2.068,0.076-2.828l1.154-1.094
		c0.802-0.759,2.067-0.726,2.828,0.076c0.76,0.802,0.726,2.068-0.076,2.828l-1.154,1.094
		C486.808,170.846,486.313,171.027,485.818,171.027z"/>
</g>
<path opacity="0.7" fill="#FFFFFF" d="M426.734,222.55c-0.58-0.074-1.123-0.4-1.453-0.938c-0.578-0.94-0.284-2.173,0.657-2.751
	c1.088-0.669,4.194-2.777,5.485-4.473c0.668-0.878,1.923-1.051,2.803-0.379c0.879,0.669,1.049,1.923,0.379,2.803
	c-1.975,2.594-6.109,5.172-6.573,5.458C427.627,222.518,427.17,222.605,426.734,222.55z"/>
<path opacity="0.7" fill="#FFFFFF" d="M434.003,183.417c-0.114,0-0.229-0.01-0.346-0.029c-1.088-0.19-1.816-1.227-1.627-2.314
	c0.061-0.347,0.664-3.427,3.167-4.748c1.036-0.545,2.767-0.97,5.132,0.105c1.005,0.457,1.449,1.643,0.992,2.648
	c-0.457,1.005-1.644,1.449-2.648,0.992c-0.49-0.223-1.166-0.438-1.608-0.208c-0.633,0.334-1.028,1.524-1.093,1.897
	C435.802,182.732,434.957,183.417,434.003,183.417z"/>
<path opacity="0.7" fill="#FFFFFF" d="M376.915,178.084c-0.444,0-0.892-0.147-1.263-0.45c-0.856-0.698-0.984-1.958-0.286-2.813
	c21.812-26.747,47.896-12.501,48.156-12.354c0.963,0.542,1.303,1.762,0.761,2.724c-0.542,0.961-1.759,1.303-2.721,0.763
	c-0.95-0.53-23.455-12.687-43.097,11.395C378.07,177.833,377.495,178.084,376.915,178.084z"/>
</svg>
